<svg width="64" height="64" viewBox="0 0 64 64" fill="none" xmlns="http://www.w3.org/2000/svg">
  <defs>
    <linearGradient id="bg" x1="8" y1="56" x2="58" y2="8" gradientUnits="userSpaceOnUse">
      <stop stop-color="#064E3B"/>
      <stop offset="0.45" stop-color="#10B981"/>
      <stop offset="1" stop-color="#A7F3D0"/>
    </linearGradient>
    <linearGradient id="shine" x1="16" y1="10" x2="48" y2="54" gradientUnits="userSpaceOnUse">
      <stop stop-color="#FFFFFF" stop-opacity="0.7"/>
      <stop offset="1" stop-color="#FFFFFF" stop-opacity="0"/>
    </linearGradient>
    <filter id="shadow" x="10" y="11" width="45" height="46" filterUnits="userSpaceOnUse" color-interpolation-filters="sRGB">
      <feDropShadow dx="0" dy="3" stdDeviation="2.5" flood-color="#064E3B" flood-opacity="0.3"/>
    </filter>
  </defs>

  <rect x="4" y="4" width="56" height="56" rx="16" fill="url(#bg)"/>
  <path d="M12 13C18 8.5 28 7.5 38 10.5C46 12.9 52 18.2 56 25" stroke="url(#shine)" stroke-width="5" stroke-linecap="round"/>

  <g filter="url(#shadow)">
    <path d="M19 18.5C19 17.1 20.1 16 21.5 16H34.2C42.1 16 47.5 20.9 47.5 28.1C47.5 35.4 42.1 40.4 34.2 40.4H28.2V48C28.2 49.1 27.3 50 26.2 50H21.5C20.1 50 19 48.9 19 47.5V18.5Z" fill="white"/>
    <path d="M28.2 24.1V32.5H33.6C36.8 32.5 38.9 30.8 38.9 28.2C38.9 25.7 36.8 24.1 33.6 24.1H28.2Z" fill="#047857"/>
    <path d="M38.6 43.1L45.6 39.3V49L42.1 47.1L38.6 49V43.1Z" fill="#FDE68A"/>
  </g>
</svg>
